<?xml version="1.0" standalone="no"?>
<!DOCTYPE svg PUBLIC "-//W3C//DTD SVG 20010904//EN"
 "http://www.w3.org/TR/2001/REC-SVG-20010904/DTD/svg10.dtd">
<svg version="1.0" xmlns="http://www.w3.org/2000/svg"
 width="207.000000pt" height="243.000000pt" viewBox="0 0 207.000000 243.000000"
 preserveAspectRatio="xMidYMid meet">

<g transform="translate(0.000000,243.000000) scale(0.100000,-0.100000)"
fill="#000000" stroke="none">
<path d="M735 2401 c-45 -20 -91 -69 -112 -118 -9 -24 -13 -88 -13 -238 l0
-205 -70 0 -70 0 0 40 c0 79 -40 123 -111 122 -70 -1 -158 -84 -189 -178 -22
-67 22 -136 97 -150 20 -4 32 -11 29 -18 -3 -6 -68 -150 -145 -321 -77 -170
-139 -311 -137 -312 2 -2 36 -9 77 -16 41 -7 73 -17 73 -22 -1 -6 -25 -101
-54 -213 -40 -155 -51 -211 -45 -240 9 -50 71 -107 165 -153 93 -46 345 -187
465 -261 140 -86 196 -103 340 -103 153 0 200 16 395 135 146 88 315 182 424
234 103 50 156 111 156 178 -1 18 -25 121 -54 228 -30 107 -51 198 -48 202 4
3 38 11 76 17 37 5 70 12 72 14 4 3 -215 496 -260 585 -30 60 -31 62 -11 62 8
0 33 7 55 16 92 37 91 144 -1 249 -80 91 -188 92 -223 3 -9 -21 -16 -52 -16
-68 l0 -30 -70 0 -70 0 0 183 c0 208 -11 265 -62 323 -45 51 -96 74 -165 74
-73 0 -130 -26 -170 -75 l-31 -38 -33 37 c-18 21 -49 46 -70 57 -50 25 -140
25 -194 0z m159 -55 c38 -16 78 -64 95 -115 13 -41 15 -261 2 -261 -6 0 -13 5
-17 11 -13 22 -90 49 -139 49 -49 0 -126 -27 -139 -49 -4 -6 -12 -11 -18 -11
-6 0 -9 47 -6 138 3 124 5 141 27 176 40 65 125 91 195 62z m426 -14 c14 -10
35 -38 48 -62 19 -39 22 -59 22 -172 0 -70 -2 -128 -5 -128 -2 0 -21 11 -41
25 -68 46 -166 46 -234 1 l-40 -26 0 131 c0 124 2 135 26 177 46 78 155 104
224 54z m-420 -384 c31 -16 52 -36 68 -65 l23 -43 -156 0 -156 0 23 43 c24 43
90 87 133 87 11 0 41 -10 65 -22z m410 -7 c26 -18 70 -77 70 -92 0 -5 -67 -9
-150 -9 -125 0 -150 2 -150 15 0 21 60 86 95 102 37 16 101 9 135 -16z m-916
-23 c27 -38 20 -83 -21 -139 -35 -48 -38 -50 -72 -44 -53 10 -71 23 -71 51 0
36 23 75 69 117 47 42 73 46 95 15z m1361 2 c64 -39 107 -140 73 -168 -7 -5
-31 -13 -53 -16 -39 -7 -41 -6 -73 39 -25 36 -32 56 -32 93 0 73 26 89 85 52z
m-770 -177 c-59 -94 -126 -128 -245 -127 -121 2 -197 34 -242 102 -35 53 -38
52 243 52 l261 0 -17 -27z m604 0 c-30 -79 -122 -126 -249 -127 -74 -1 -92 3
-143 28 -53 25 -117 90 -117 118 0 4 117 8 260 8 l260 0 -11 -27z m-421 -160
c52 -26 66 -28 172 -28 98 0 122 4 165 23 27 13 60 33 72 44 13 12 25 19 28
17 2 -3 14 -178 25 -390 12 -211 23 -398 26 -415 6 -45 57 -90 154 -139 99
-50 131 -80 132 -124 1 -44 -28 -80 -98 -116 -287 -153 -374 -201 -471 -262
-142 -89 -227 -118 -343 -117 -112 1 -180 25 -333 118 -137 83 -339 195 -439
244 -91 44 -128 80 -128 125 0 50 28 79 129 131 103 53 148 93 155 139 5 29
46 743 46 794 0 22 2 22 44 -11 63 -48 152 -70 263 -64 105 5 167 32 228 100
l40 44 38 -43 c21 -23 63 -55 95 -70z m-788 -238 c-11 -187 -20 -345 -20 -351
0 -6 -24 1 -53 16 -30 15 -85 35 -123 45 -38 10 -71 20 -73 21 -4 4 176 407
236 528 24 48 46 86 48 84 2 -2 -5 -157 -15 -343z m1346 253 c54 -107 234
-506 234 -518 0 -4 -32 -16 -72 -25 -39 -10 -96 -31 -125 -46 -53 -28 -53 -28
-53 -6 0 33 -29 542 -35 620 -3 37 -3 67 0 67 3 0 26 -42 51 -92z m-1453 -644
c53 -27 77 -55 77 -89 0 -20 -8 -39 -22 -52 -26 -24 -148 -87 -155 -80 -7 7
54 237 63 237 3 0 19 -7 37 -16z m1571 -1 c28 -96 57 -216 53 -220 -7 -7 -128
56 -154 80 -46 42 -25 100 52 140 38 21 43 21 49 0z"/>
<path d="M837 1453 c-4 -3 -7 -22 -7 -42 0 -95 49 -169 131 -198 l49 -18 0
-93 c0 -52 -3 -92 -7 -90 -5 2 -32 19 -60 37 -46 29 -53 38 -53 66 0 73 -41
145 -100 175 -53 27 -86 26 -94 -2 -13 -50 -6 -115 19 -164 29 -58 29 -54 12
-54 -20 0 -87 -70 -94 -99 -7 -30 11 -45 77 -61 63 -15 119 0 171 47 l40 36
25 -24 c44 -41 55 -75 61 -185 l6 -104 27 0 28 0 3 113 c4 107 6 116 33 151
15 21 34 40 42 43 7 2 29 -11 48 -31 59 -58 128 -67 219 -29 31 13 36 20 31
37 -10 34 -53 85 -84 101 l-29 15 23 34 c13 19 26 52 29 73 6 35 -4 108 -17
120 -13 14 -81 -11 -117 -44 -40 -36 -69 -105 -69 -164 0 -20 -7 -30 -29 -39
-16 -6 -37 -20 -47 -31 -9 -10 -21 -19 -26 -19 -4 0 -8 42 -8 94 l0 94 35 12
c82 27 134 104 135 198 l0 52 -37 0 c-51 -1 -116 -32 -143 -68 l-23 -30 -25
30 c-42 49 -150 87 -175 61z m146 -136 c24 -46 19 -54 -22 -33 -31 16 -61 61
-61 91 0 28 60 -14 83 -58z m175 16 c-13 -27 -74 -70 -84 -60 -4 3 4 24 17 47
41 73 102 85 67 13z m-346 -154 c10 -18 18 -44 18 -57 0 -20 -3 -21 -21 -12
-28 16 -59 69 -59 104 0 27 1 28 22 14 12 -8 30 -30 40 -49z m508 27 c0 -36
-40 -96 -65 -96 -21 0 2 69 33 103 14 15 27 27 29 27 2 0 3 -15 3 -34z m-470
-185 c0 -23 -54 -51 -96 -51 -49 0 -55 10 -21 33 38 24 117 37 117 18z m451
-1 c20 -6 44 -19 54 -30 18 -20 17 -20 -29 -20 -47 0 -106 28 -106 51 0 12 36
11 81 -1z"/>
<path d="M556 803 c-15 -15 -30 -40 -33 -55 -5 -26 -9 -28 -54 -28 l-49 0 0
-35 c0 -19 5 -35 10 -35 6 0 10 -21 10 -48 0 -55 16 -81 66 -113 l37 -22 42
22 c50 27 75 66 75 120 0 23 5 41 10 41 6 0 10 16 10 34 0 35 0 35 -51 38
l-51 3 19 24 c17 20 18 29 9 53 -13 35 -17 35 -50 1z m34 -192 c0 -23 -7 -46
-16 -55 -34 -35 -64 -11 -64 51 l0 43 40 0 c40 0 40 0 40 -39z"/>
<path d="M1536 809 c-14 -11 -29 -35 -34 -52 -8 -30 -11 -32 -60 -35 l-52 -3
0 -35 c0 -18 4 -34 9 -34 5 0 11 -23 13 -50 6 -56 37 -99 89 -120 24 -10 33
-9 64 10 49 31 65 57 65 112 0 27 5 48 10 48 6 0 10 16 10 35 0 35 0 35 -45
35 -47 0 -55 9 -30 34 10 10 13 24 9 41 -9 35 -18 38 -48 14z m27 -201 c-3
-24 -10 -49 -16 -55 -26 -34 -67 2 -67 58 l0 39 44 0 44 0 -5 -42z"/>
<path d="M1042 556 c-18 -20 -32 -46 -32 -56 0 -17 -7 -20 -50 -20 l-50 0 0
-35 c0 -19 5 -35 10 -35 6 0 10 -24 10 -53 0 -56 15 -79 81 -119 25 -16 28
-15 72 14 50 32 72 77 65 129 -3 20 0 29 9 29 8 0 13 13 13 35 l0 35 -51 0
-51 0 16 25 c19 30 20 46 3 69 -12 17 -15 15 -45 -18z m38 -185 c0 -40 -20
-71 -45 -71 -21 0 -45 41 -45 77 0 32 1 33 45 33 l45 0 0 -39z"/>
</g>
</svg>
